<?xml version="1.0" encoding="iso-8859-1"?>
<!-- Generator: Adobe Illustrator 19.0.0, SVG Export Plug-In . SVG Version: 6.00 Build 0)  -->
<svg version="1.1" id="Layer_1" xmlns="http://www.w3.org/2000/svg" xmlns:xlink="http://www.w3.org/1999/xlink" x="0px" y="0px"
	 viewBox="0 0 495 495" style="enable-background:new 0 0 495 495;" xml:space="preserve">
<g>
	<polygon style="fill:#CD2A00;" points="247.5,0 247.5,40 455,40 455,455 247.5,455 247.5,495 495,495 495,0 	"/>
	<polygon style="fill:#FF3501;" points="40,455 40,40 247.5,40 247.5,0 0,0 0,495 247.5,495 247.5,455 	"/>
	<path style="fill:#FF3501;" d="M162.578,272.18c4.122,1.695,7.902,0.063,9.053-4.496c0.903-3.22,2.848-11.185,3.765-14.529
		c1.151-4.558,0.732-6.129-2.613-10.143c-7.295-8.571-11.963-19.695-11.963-35.499c0-45.689,34.208-86.649,89.075-86.649
		c48.614,0,75.292,29.713,75.292,69.397c0,52.145-23.039,96.138-57.371,96.138c-18.948,0-33.058-15.618-28.546-34.831
		c5.461-22.899,15.977-47.695,15.977-64.216c0-14.84-7.903-27.177-24.377-27.177c-19.383,0-34.939,20.006-34.939,46.856
		c0,17.081,5.771,28.624,5.771,28.624s-19.803,83.926-23.272,98.627c-6.923,29.23-1.027,65.072-0.545,68.728
		c0.311,2.131,3.095,2.676,4.324,1.026c1.758-2.302,24.844-30.739,32.684-59.176c2.194-8.089,12.71-49.78,12.71-49.78
		c6.254,12.04,24.657,22.557,44.227,22.557c58.165,0,97.601-53.001,97.601-123.968C369.431,140.013,323.975,90,254.874,90
		c-86.043,0-129.305,61.619-129.305,113.016C125.569,234.191,137.362,261.851,162.578,272.18z"/>
</g>
<g>
</g>
<g>
</g>
<g>
</g>
<g>
</g>
<g>
</g>
<g>
</g>
<g>
</g>
<g>
</g>
<g>
</g>
<g>
</g>
<g>
</g>
<g>
</g>
<g>
</g>
<g>
</g>
<g>
</g>
</svg>
