<?xml version="1.0" encoding="iso-8859-1"?>
<!-- Generator: Adobe Illustrator 19.0.0, SVG Export Plug-In . SVG Version: 6.00 Build 0)  -->
<svg version="1.1" id="Layer_1" xmlns="http://www.w3.org/2000/svg" xmlns:xlink="http://www.w3.org/1999/xlink" x="0px" y="0px"
	 viewBox="0 0 495 495" style="enable-background:new 0 0 495 495;" xml:space="preserve">
<g>
	<polygon style="fill:#00D7DF;" points="247.5,0 247.5,40 455,40 455,455 247.5,455 247.5,495 495,495 495,0 	"/>
	<polygon style="fill:#00E7F0;" points="40,455 40,40 247.5,40 247.5,0 0,0 0,495 247.5,495 247.5,455 	"/>
	<path style="fill:#00E7F0;" d="M129.554,192.711c10.767,0,20.873,15.716,30.317,47.224l12.769,43.465l12.977,43.54
		c12.335,31.734,27.749,47.583,46.279,47.583c29.808-0.133,66.038-26.106,108.765-77.919c41.463-49.51,62.864-88.535,64.186-117.248
		c0.076-2.361,0.151-4.722,0.151-6.932c-0.151-33.869-15.357-51.133-45.825-51.946h-3.552
		c-42.123,0.151-70.608,23.026-85.362,68.701c8.255-3.022,15.943-4.572,23.178-4.572c14.299,0,21.458,6.479,21.458,19.55
		c0,1.701-0.151,3.458-0.359,5.46c-0.963,9.596-7.971,24.349-21.1,44.277c-13.373,19.399-23.253,29.146-29.751,29.146
		c-8.33-0.151-16.15-15.131-23.385-44.863c-1.322-4.514-2.947-12.334-4.873-23.536c-1.984-11.221-4.496-25.842-7.519-43.767
		c-5.307-31.508-19.04-47.224-40.876-47.224c-1.473,0-2.89,0.076-4.364,0.227c-10.616,1.247-26.181,10.181-46.619,26.558
		l-22.819,19.041L90,188.726l14.979,17.718C118.995,197.301,127.193,192.711,129.554,192.711z"/>
</g>
<g>
</g>
<g>
</g>
<g>
</g>
<g>
</g>
<g>
</g>
<g>
</g>
<g>
</g>
<g>
</g>
<g>
</g>
<g>
</g>
<g>
</g>
<g>
</g>
<g>
</g>
<g>
</g>
<g>
</g>
</svg>
