<?xml version="1.0" encoding="iso-8859-1"?>
<!-- Generator: Adobe Illustrator 19.0.0, SVG Export Plug-In . SVG Version: 6.00 Build 0)  -->
<svg version="1.1" id="Layer_1" xmlns="http://www.w3.org/2000/svg" xmlns:xlink="http://www.w3.org/1999/xlink" x="0px" y="0px"
	 viewBox="0 0 495 495" style="enable-background:new 0 0 495 495;" xml:space="preserve">
<g>
	<polygon style="fill:#165C92;" points="247.5,0 247.5,40 455,40 455,455 247.5,455 247.5,495 495,495 495,0 	"/>
	<polygon style="fill:#1A6FB0;" points="40,455 40,40 247.5,40 247.5,0 0,0 0,495 247.5,495 247.5,455 	"/>
	<path style="fill:#1A6FB0;" d="M185.307,329.385c0,12.542,1.787,23.327,5.453,32.446c2.604,7.209,8.028,14.298,16.207,21.66
		c6.272,6.271,15.268,11.694,26.993,16.207c14.42,3.545,26.962,5.302,37.868,5.302c12.662,0,24.356-1.303,35.141-3.999
		c12.664-2.726,24.843-7.24,36.565-13.511v-50.046c-16.207,10.876-32.081,16.208-47.349,16.208c-7.21,0-15.267-2.241-24.356-6.634
		c-5.333-3.666-8.543-7.695-9.483-12.179c-2.726-5.453-4.362-17.147-4.362-35.262v-79.765h72.767V171.31h-72.767V90h-42.957
		c-3.575,18.935-7.241,32.415-10.785,40.594c-4.483,9.938-11.723,18.934-21.66,26.962c-9.937,8.18-20.236,13.966-31.111,17.661
		v44.595h33.839V329.385z"/>
</g>
<g>
</g>
<g>
</g>
<g>
</g>
<g>
</g>
<g>
</g>
<g>
</g>
<g>
</g>
<g>
</g>
<g>
</g>
<g>
</g>
<g>
</g>
<g>
</g>
<g>
</g>
<g>
</g>
<g>
</g>
</svg>
